<svg xmlns="http://www.w3.org/2000/svg" viewBox="0 0 144 36"><path d="M52.8 28.2v-2.88h-6.82V7.9h-4.083v20.3h10.9zm6.602 0V13.584h-3.864V28.2h3.864zm.183-16.936V7.94H55.3v3.336h4.266zM70.517 28.2v-2.7c-1.823 0-2.734-.627-2.734-2.024v-7.984h2.66v-2.3h-2.66v-3.85h-3.865v3.85H61.95v2.3h1.968v8.155c0 1.768.73 2.908 1.933 3.65 1.312.8 2.843.913 4.666.913zm13.785-6.642c-.036-2.823.1-5.874-1.75-7.414-1.13-.94-2.516-1.197-4.12-1.197-1.567 0-2.953.285-4.12 1.197-1.64 1.283-1.787 3.793-1.787 6.53s.146 5.246 1.787 6.53c1.166.912 2.37 1.226 4.156 1.226 1.677 0 3.17-.342 4.156-1.198 1.093-.94 1.53-2.195 1.604-3.45H80.4c0 .457-.183 1.055-.474 1.34-.365.37-.802.598-1.458.598-.693 0-1.203-.256-1.495-.598-.474-.542-.583-1.854-.583-3.564h7.9zm-3.864-2.224h-4.046c0-1.54.146-2.68.583-3.108.328-.342.766-.6 1.458-.6s1.13.257 1.458.6c.438.427.547 1.568.547 3.108z" fill="#cb6828"/><path d="M100.202 11.56V7.9H86.277v3.65h4.374V28.2h5.177V11.56h4.374zm11.128 4.847v-3.764c-1.057 0-2.04.2-2.88.514-.875.342-1.604.826-2.15 1.368V12.87h-4.666V28.2h4.885v-9.35c0-1.54 1.385-2.452 3.026-2.452h1.786zM125.627 28.2V17.718a4.63 4.63 0 0 0-1.859-3.82c-1.166-.913-2.843-1.255-4.52-1.255-1.714 0-3.573.6-4.557 1.37-1.276 1.026-1.787 2.167-1.787 3.42h4.885a1.4 1.4 0 0 1 .438-1.055c.255-.228.547-.37 1.057-.37.9 0 1.458.484 1.458 1.34v1.768h-1.494c-2.552 0-3.828.427-4.812 1.083-1.24.827-1.896 2.024-1.896 3.42 0 1.455.292 2.595 1.13 3.393 1.057 1.027 2.15 1.426 3.974 1.426.984 0 1.567-.17 2.15-.485.5-.256.875-.627 1.276-.998V28.2h4.557zm-4.885-4.762c0 1.084-.765 1.654-1.64 1.654-1.02 0-1.677-.542-1.677-1.654 0-.4.22-1.026.62-1.3.5-.37 1.057-.37 1.86-.37h.838v1.682zm13.06 4.762V13.47h-4.885V28.2h4.885zm.145-16.423V7.74h-5.176v4.05h5.176zM144.382 28.2V24.8c-1.64 0-2.406-.57-2.406-1.767V7.9h-4.885v15.368c0 1.996.875 3.222 2.26 3.992 1.422.798 3.026.94 5.03.94z" fill="#303030"/><path d="M16.44.404c-.8.53-6.1 4.18-6.145 8.97-.077 8.175 7.268 8.62 7.688 15.544.273 4.495-3.448 8.985-5.048 10.697C5.463 33.423 0 26.513 0 18.337 0 8.928 7.235 1.196 16.44.404zm2.9-.018C28.65 1.073 36 8.854 36 18.337c0 7.783-4.95 14.418-11.87 16.928.943-2.832 3.068-10.682-.1-16.28-2.76-4.882-8.952-5.37-9.02-12.014-.038-3.773 3.72-6.214 4.33-6.585z" fill="#3e3e3e"/></svg>
